<svg width="1224" height="200" viewBox="0 0 1224 200" fill="none" xmlns="http://www.w3.org/2000/svg">
<path fill-rule="evenodd" clip-rule="evenodd" d="M10 0C4.47715 0 0 4.47716 0 10V190C0 195.523 4.47717 200 10 200H1214C1219.52 200 1224 195.523 1224 190V10C1224 4.47715 1219.52 0 1214 0H10ZM5.03732 12.9851C5.03732 7.46222 9.51447 2.98507 15.0373 2.98507H1208.96C1214.49 2.98507 1218.96 7.46222 1218.96 12.9851V187.015C1218.96 192.538 1214.49 197.015 1208.96 197.015H15.0373C9.51446 197.015 5.03732 192.538 5.03732 187.015V12.9851ZM10.0746 15.9701C10.0746 10.4473 14.5518 5.97015 20.0746 5.97015H1203.93C1209.45 5.97015 1213.93 10.4473 1213.93 15.9701V184.03C1213.93 189.553 1209.45 194.03 1203.93 194.03H20.0746C14.5518 194.03 10.0746 189.553 10.0746 184.03V15.9701Z" fill="#BF7D4C" fill-opacity="0.7"/>
</svg>
