<svg width="57" height="80" viewBox="0 0 57 80" fill="none" xmlns="http://www.w3.org/2000/svg">
<path fill-rule="evenodd" clip-rule="evenodd" d="M45.962 31.8198C47.9146 33.7724 51.0804 33.7724 53.033 31.8198C54.9857 29.8672 54.9857 26.7014 53.033 24.7487L31.8198 3.53553C30.5994 2.31515 28.9052 1.8575 27.3293 2.1626C26.3838 2.34566 25.481 2.8033 24.7488 3.53553L3.53556 24.7487C1.58294 26.7014 1.58294 29.8672 3.53556 31.8198C5.48818 33.7724 8.65401 33.7724 10.6066 31.8198L28.2843 14.1421L45.962 31.8198Z" fill="white"/>
<path fill-rule="evenodd" clip-rule="evenodd" d="M45.962 54.4472C47.9146 56.3999 51.0804 56.3999 53.033 54.4472C54.9857 52.4946 54.9857 49.3288 53.033 47.3762L31.8198 26.163C30.5994 24.9426 28.9052 24.4849 27.3293 24.79C26.3838 24.9731 25.481 25.4307 24.7488 26.163L3.53556 47.3762C1.58294 49.3288 1.58294 52.4946 3.53556 54.4472C5.48818 56.3999 8.65401 56.3999 10.6066 54.4472L28.2843 36.7696L45.962 54.4472Z" fill="white"/>
</svg>
