<svg width="57" height="57" viewBox="0 0 57 57" fill="none" xmlns="http://www.w3.org/2000/svg">
<path d="M16.7749 0.583374H40.2249C49.1583 0.583374 56.4166 7.84171 56.4166 16.775V40.225C56.4166 44.5193 54.7107 48.6377 51.6742 51.6743C48.6376 54.7108 44.5192 56.4167 40.2249 56.4167H16.7749C7.84159 56.4167 0.583252 49.1584 0.583252 40.225V16.775C0.583252 12.4807 2.28916 8.36233 5.32568 5.3258C8.36221 2.28928 12.4806 0.583374 16.7749 0.583374ZM16.2166 6.16671C13.5512 6.16671 10.9949 7.22554 9.11016 9.11028C7.22542 10.995 6.16658 13.5513 6.16658 16.2167V40.7834C6.16658 46.3388 10.6612 50.8334 16.2166 50.8334H40.7832C43.4487 50.8334 46.0049 49.7745 47.8897 47.8898C49.7744 46.0051 50.8332 43.4488 50.8332 40.7834V16.2167C50.8332 10.6613 46.3387 6.16671 40.7832 6.16671H16.2166ZM43.1562 10.3542C44.0817 10.3542 44.9693 10.7219 45.6237 11.3763C46.2781 12.0307 46.6457 12.9183 46.6457 13.8438C46.6457 14.7693 46.2781 15.6569 45.6237 16.3113C44.9693 16.9657 44.0817 17.3334 43.1562 17.3334C42.2307 17.3334 41.3431 16.9657 40.6887 16.3113C40.0342 15.6569 39.6666 14.7693 39.6666 13.8438C39.6666 12.9183 40.0342 12.0307 40.6887 11.3763C41.3431 10.7219 42.2307 10.3542 43.1562 10.3542ZM28.4999 14.5417C32.2019 14.5417 35.7523 16.0123 38.3699 18.63C40.9876 21.2477 42.4582 24.7981 42.4582 28.5C42.4582 32.202 40.9876 35.7524 38.3699 38.3701C35.7523 40.9878 32.2019 42.4584 28.4999 42.4584C24.7979 42.4584 21.2476 40.9878 18.6299 38.3701C16.0122 35.7524 14.5416 32.202 14.5416 28.5C14.5416 24.7981 16.0122 21.2477 18.6299 18.63C21.2476 16.0123 24.7979 14.5417 28.4999 14.5417ZM28.4999 20.125C26.2787 20.125 24.1485 21.0074 22.5779 22.578C21.0073 24.1486 20.1249 26.2789 20.1249 28.5C20.1249 30.7212 21.0073 32.8514 22.5779 34.4221C24.1485 35.9927 26.2787 36.875 28.4999 36.875C30.7211 36.875 32.8513 35.9927 34.4219 34.4221C35.9926 32.8514 36.8749 30.7212 36.8749 28.5C36.8749 26.2789 35.9926 24.1486 34.4219 22.578C32.8513 21.0074 30.7211 20.125 28.4999 20.125Z" fill="#FFBF46"/>
</svg>
