<svg width="80" height="57" viewBox="0 0 80 57" fill="none" xmlns="http://www.w3.org/2000/svg">
<path fill-rule="evenodd" clip-rule="evenodd" d="M48.1802 45.962C46.2276 47.9146 46.2276 51.0804 48.1802 53.033C50.1328 54.9857 53.2986 54.9857 55.2513 53.033L76.4645 31.8198C77.6849 30.5994 78.1425 28.9052 77.8374 27.3293C77.6543 26.3838 77.1967 25.481 76.4645 24.7488L55.2513 3.53556C53.2986 1.58294 50.1328 1.58294 48.1802 3.53556C46.2276 5.48818 46.2276 8.654 48.1802 10.6066L65.8579 28.2843L48.1802 45.962Z" fill="white"/>
<path fill-rule="evenodd" clip-rule="evenodd" d="M25.5528 45.962C23.6001 47.9146 23.6001 51.0804 25.5527 53.033C27.5054 54.9857 30.6712 54.9857 32.6238 53.033L53.837 31.8198C55.0574 30.5994 55.5151 28.9052 55.21 27.3293C55.0269 26.3838 54.5693 25.481 53.837 24.7488L32.6238 3.53556C30.6712 1.58294 27.5054 1.58294 25.5528 3.53556C23.6001 5.48818 23.6001 8.654 25.5528 10.6066L43.2304 28.2843L25.5528 45.962Z" fill="white"/>
</svg>
